<svg width="1576" height="1815" viewBox="0 0 1576 1815" fill="none" xmlns="http://www.w3.org/2000/svg">
<path d="M281 895.5L276.886 892.658L274.715 895.801L277.177 898.722L281 895.5ZM310.5 974L315.499 974.1L315.5 974.05V974H310.5ZM276 1058L272.438 1054.49L272.438 1054.49L276 1058ZM23 1072.5L27.7679 1070.99L27.7428 1070.91L27.715 1070.84L23 1072.5ZM20.5 751.5L15.5807 750.606L15.5407 750.825L15.5205 751.047L20.5 751.5ZM25.5 738.5L29.9118 740.853L29.9254 740.827L29.9388 740.802L25.5 738.5ZM267.5 757L263.909 760.479L263.936 760.507L263.964 760.536L267.5 757ZM219 950L214.291 951.682L214.343 951.827L214.404 951.97L219 950ZM210 940L212.095 935.46L211.977 935.406L211.857 935.358L210 940ZM155 929L151.93 932.947L151.93 932.947L155 929ZM155 871.5L152.034 867.475L151.982 867.513L151.93 867.553L155 871.5ZM210 854L214.672 855.78L214.759 855.551L214.824 855.316L210 854ZM203 818.5L200.35 822.74L200.407 822.776L200.465 822.81L203 818.5ZM108.5 813.5V808.5H103.5V813.5H108.5ZM108.5 1003H103.5V1008H108.5V1003ZM277.177 898.722C296.127 921.205 305.5 946.244 305.5 974H315.5C315.5 943.756 305.207 916.462 284.823 892.278L277.177 898.722ZM305.501 973.9C304.859 1006.02 293.828 1032.78 272.438 1054.49L279.562 1061.51C302.839 1037.88 314.808 1008.64 315.499 974.1L305.501 973.9ZM272.438 1054.49C251.388 1075.86 225.843 1086.5 195.5 1086.5V1096.5C228.491 1096.5 256.612 1084.81 279.562 1061.51L272.438 1054.49ZM195.5 1086.5H64V1096.5H195.5V1086.5ZM64 1086.5C40.9966 1086.5 30.6869 1080.24 27.7679 1070.99L18.2321 1074.01C23.3131 1090.1 40.3367 1096.5 64 1096.5V1086.5ZM27.715 1070.84C26.0071 1066 25 1058.03 25 1046.5H15C15 1058.3 15.9929 1067.67 18.2851 1074.16L27.715 1070.84ZM25 1046.5V769H15V1046.5H25ZM25 769C25 761.019 25.1681 755.378 25.4795 751.953L15.5205 751.047C15.1653 754.955 15 760.981 15 769H25ZM25.4193 752.394C25.9585 749.429 27.3758 745.608 29.9118 740.853L21.0882 736.147C18.2909 741.392 16.3749 746.237 15.5807 750.606L25.4193 752.394ZM29.9388 740.802C31.4984 737.794 34.6558 735.083 40.3856 733.1C46.1527 731.104 54.1182 730 64.5 730V720C53.5484 720 44.3473 721.146 37.1144 723.65C29.8442 726.167 24.1683 730.206 21.0612 736.198L29.9388 740.802ZM64.5 730H190.5V720H64.5V730ZM190.5 730C219.862 730 244.218 740.153 263.909 760.479L271.091 753.521C249.449 731.181 222.471 720 190.5 720V730ZM263.964 760.536C284.704 781.275 295 806.008 295 835H305C305 803.326 293.629 776.058 271.036 753.464L263.964 760.536ZM295 835C295 855.971 288.984 875.148 276.886 892.658L285.114 898.342C298.35 879.185 305 858.029 305 835H295ZM227 969C227 960.67 225.972 953.574 223.596 948.03L214.404 951.97C216.028 955.759 217 961.33 217 969H227ZM223.709 948.318C221.61 942.441 217.7 938.047 212.095 935.46L207.905 944.54C210.967 945.953 213.057 948.226 214.291 951.682L223.709 948.318ZM211.857 935.358C204.333 932.348 194.267 931 182 931V941C193.733 941 202.333 942.319 208.143 944.642L211.857 935.358ZM182 931C170.51 931 162.813 928.742 158.07 925.053L151.93 932.947C159.187 938.591 169.49 941 182 941V931ZM158.07 925.053C154.025 921.907 151 914.56 151 900.5H141C141 915.106 143.975 926.76 151.93 932.947L158.07 925.053ZM151 900.5C151 886.059 154.044 878.578 158.07 875.447L151.93 867.553C143.956 873.756 141 885.608 141 900.5H151ZM157.966 875.525C162.98 871.831 171.968 869.5 186 869.5V859.5C171.365 859.5 159.687 861.836 152.034 867.475L157.966 875.525ZM186 869.5C199.657 869.5 210.796 865.955 214.672 855.78L205.328 852.22C203.871 856.045 199.009 859.5 186 859.5V869.5ZM214.824 855.316C216.013 850.956 216.5 844.379 216.5 836H206.5C206.5 844.288 205.987 849.71 205.176 852.684L214.824 855.316ZM216.5 836C216.5 826.442 213.148 818.669 205.535 814.19L200.465 822.81C204.185 824.998 206.5 828.891 206.5 836H216.5ZM205.65 814.26C199.126 810.183 189.823 808.5 178.5 808.5V818.5C189.177 818.5 196.207 820.151 200.35 822.74L205.65 814.26ZM178.5 808.5H108.5V818.5H178.5V808.5ZM103.5 813.5V1003H113.5V813.5H103.5ZM108.5 1008H190.5V998H108.5V1008ZM190.5 1008C201.873 1008 211.293 1004.91 217.793 997.898C224.225 990.955 227 981.013 227 969H217C217 979.653 214.525 986.712 210.457 991.102C206.457 995.42 200.127 998 190.5 998V1008ZM693.742 774.5L697.245 770.932L697.245 770.932L693.742 774.5ZM696.242 1042.5L699.891 1045.92L699.899 1045.91L699.906 1045.9L696.242 1042.5ZM438.742 1043L435.142 1046.47L435.15 1046.48L435.158 1046.49L438.742 1043ZM400.742 834.5L405.358 836.423L405.362 836.412L405.367 836.401L400.742 834.5ZM440.742 773.5L444.242 777.071L444.242 777.071L440.742 773.5ZM498.242 735L496.264 730.408L496.264 730.408L498.242 735ZM502.742 982L499.238 985.567L499.27 985.598L499.302 985.628L502.742 982ZM631.242 982.5L634.681 986.13L634.681 986.13L631.242 982.5ZM630.742 837L627.27 840.598L627.286 840.613L627.302 840.628L630.742 837ZM502.742 837.5L506.214 841.098L506.23 841.082L506.246 841.067L502.742 837.5ZM565.242 726C613.219 726 654.808 743.286 690.24 778.068L697.245 770.932C660.01 734.38 615.932 716 565.242 716V726ZM690.24 778.068C725.572 812.752 743.242 855.781 743.242 907.5H753.242C753.242 853.219 734.579 807.581 697.245 770.932L690.24 778.068ZM743.242 907.5C743.242 958.952 726.355 1002.72 692.578 1039.1L699.906 1045.9C735.463 1007.61 753.242 961.382 753.242 907.5H743.242ZM692.593 1039.08C658.871 1075.07 617.525 1093 568.242 1093V1103C620.293 1103 664.28 1083.93 699.891 1045.92L692.593 1039.08ZM568.242 1093C518.94 1093 477.062 1075.22 442.326 1039.51L435.158 1046.49C471.756 1084.11 516.211 1103 568.242 1103V1093ZM442.343 1039.53C407.902 1003.79 390.742 961.365 390.742 912H380.742C380.742 963.968 398.916 1008.88 435.142 1046.47L442.343 1039.53ZM390.742 912C390.742 884.951 395.627 859.775 405.358 836.423L396.127 832.577C385.857 857.225 380.742 883.716 380.742 912H390.742ZM405.367 836.401C415.142 812.615 428.118 792.873 444.242 777.071L437.243 769.929C420.033 786.794 406.343 807.719 396.117 832.599L405.367 836.401ZM444.242 777.071C460.464 761.174 479.113 748.684 500.22 739.592L496.264 730.408C474.038 739.982 454.354 753.16 437.243 769.929L444.242 777.071ZM500.22 739.592C521.279 730.521 542.94 726 565.242 726V716C541.544 716 518.539 720.813 496.264 730.408L500.22 739.592ZM469.242 909.5C469.242 940.34 479.168 965.849 499.238 985.567L506.246 978.433C488.316 960.818 479.242 937.993 479.242 909.5H469.242ZM499.302 985.628C519.437 1004.72 542.131 1014.5 567.242 1014.5V1004.5C545.02 1004.5 524.714 995.944 506.183 978.372L499.302 985.628ZM567.242 1014.5C592.328 1014.5 614.859 1004.91 634.681 986.13L627.803 978.87C609.625 996.092 589.489 1004.5 567.242 1004.5V1014.5ZM634.681 986.13C654.838 967.033 664.742 941.468 664.742 910H654.742C654.742 939.199 645.646 961.967 627.803 978.87L634.681 986.13ZM664.742 910C664.742 878.503 654.653 852.784 634.183 833.372L627.302 840.628C645.498 857.883 654.742 880.83 654.742 910H664.742ZM634.214 833.402C614.399 814.282 591.858 804.5 566.742 804.5V814.5C588.959 814.5 609.085 823.051 627.27 840.598L634.214 833.402ZM566.742 804.5C541.596 804.5 519.045 814.473 499.238 833.933L506.246 841.067C524.439 823.193 544.555 814.5 566.742 814.5V804.5ZM499.27 833.902C479.169 853.298 469.242 878.66 469.242 909.5H479.242C479.242 881.006 488.316 858.368 506.214 841.098L499.27 833.902ZM1036.42 906.5L1032.72 903.136L1029.66 906.5L1032.72 909.864L1036.42 906.5ZM1136.92 1017L1140.64 1013.67L1140.63 1013.65L1140.62 1013.64L1136.92 1017ZM1134.42 1079.5L1131.08 1075.78L1131.05 1075.8L1131.03 1075.82L1134.42 1079.5ZM1071.42 1077L1067.65 1080.29L1067.66 1080.29L1071.42 1077ZM976.418 968L980.187 964.715L976.418 960.39L972.649 964.715L976.418 968ZM881.418 1077L885.134 1080.34L885.161 1080.32L885.187 1080.29L881.418 1077ZM817.918 1079.5L814.527 1083.17L814.575 1083.22L814.625 1083.26L817.918 1079.5ZM815.918 1017L812.219 1013.64L812.208 1013.65L812.197 1013.66L815.918 1017ZM916.418 906.5L920.117 909.864L923.177 906.5L920.117 903.136L916.418 906.5ZM815.918 796L819.617 792.636L819.584 792.6L819.55 792.564L815.918 796ZM817.918 734L821.258 737.721L821.284 737.698L821.309 737.674L817.918 734ZM881.418 736L885.187 732.715L885.181 732.707L881.418 736ZM976.418 845L972.649 848.285L976.418 852.61L980.187 848.285L976.418 845ZM1071.42 736L1067.7 732.655L1067.67 732.685L1067.65 732.715L1071.42 736ZM1134.42 733.5L1131.08 737.221L1131.08 737.221L1134.42 733.5ZM1136.92 796L1133.28 792.567L1133.25 792.601L1133.22 792.636L1136.92 796ZM1032.72 909.864L1133.22 1020.36L1140.62 1013.64L1040.12 903.136L1032.72 909.864ZM1133.19 1020.33C1144.39 1032.84 1148.92 1042.3 1148.92 1049H1158.92C1158.92 1038.37 1152.12 1026.49 1140.64 1013.67L1133.19 1020.33ZM1148.92 1049C1148.92 1055.34 1143.96 1064.21 1131.08 1075.78L1137.76 1083.22C1150.87 1071.45 1158.92 1059.99 1158.92 1049H1148.92ZM1131.03 1075.82C1118.55 1087.32 1108.93 1092 1101.92 1092V1102C1112.91 1102 1124.95 1095.01 1137.81 1083.18L1131.03 1075.82ZM1101.92 1092C1098.88 1092 1095.12 1090.82 1090.53 1087.82C1085.96 1084.82 1080.84 1080.17 1075.18 1073.71L1067.66 1080.29C1073.66 1087.16 1079.46 1092.51 1085.05 1096.18C1090.63 1099.84 1096.29 1102 1101.92 1102V1092ZM1075.19 1073.71L980.187 964.715L972.649 971.285L1067.65 1080.29L1075.19 1073.71ZM972.649 964.715L877.649 1073.71L885.187 1080.29L980.187 971.285L972.649 964.715ZM877.702 1073.66C871.875 1080.13 866.625 1084.79 861.957 1087.8C857.275 1090.82 853.466 1092 850.418 1092V1102C856.036 1102 861.727 1099.85 867.379 1096.2C873.044 1092.55 878.961 1087.2 885.134 1080.34L877.702 1073.66ZM850.418 1092C847.38 1092 843.423 1090.92 838.413 1088.22C833.437 1085.54 827.707 1081.42 821.21 1075.74L814.625 1083.26C821.462 1089.25 827.816 1093.87 833.672 1097.03C839.496 1100.16 845.123 1102 850.418 1102V1092ZM821.309 1075.83C814.992 1069.99 810.445 1064.78 807.506 1060.18C804.552 1055.56 803.418 1051.87 803.418 1049H793.418C793.418 1054.46 795.534 1060.02 799.08 1065.57C802.641 1071.14 807.844 1077.01 814.527 1083.17L821.309 1075.83ZM803.418 1049C803.418 1045.97 804.493 1042.06 807.18 1037.15C809.851 1032.27 813.962 1026.67 819.639 1020.34L812.197 1013.66C806.208 1020.33 801.569 1026.57 798.406 1032.35C795.259 1038.11 793.418 1043.7 793.418 1049H803.418ZM819.617 1020.36L920.117 909.864L912.719 903.136L812.219 1013.64L819.617 1020.36ZM920.117 903.136L819.617 792.636L812.219 799.364L912.719 909.864L920.117 903.136ZM819.55 792.564C808.029 780.385 803.418 771.119 803.418 764.5H793.418C793.418 775.215 800.473 786.949 812.286 799.436L819.55 792.564ZM803.418 764.5C803.418 758.156 808.372 749.285 821.258 737.721L814.578 730.279C801.464 742.048 793.418 753.51 793.418 764.5H803.418ZM821.309 737.674C834.203 725.773 843.796 721 850.418 721V711C839.706 711 827.633 718.227 814.527 730.326L821.309 737.674ZM850.418 721C857.078 721 866.117 726.106 877.655 739.293L885.181 732.707C873.385 719.227 861.758 711 850.418 711V721ZM877.649 739.285L972.649 848.285L980.187 841.715L885.187 732.715L877.649 739.285ZM980.187 848.285L1075.19 739.285L1067.65 732.715L972.649 841.715L980.187 848.285ZM1075.13 739.345C1080.97 732.861 1086.19 728.196 1090.78 725.181C1095.41 722.15 1099.08 721 1101.92 721V711C1096.43 711 1090.85 713.183 1085.3 716.819C1079.73 720.471 1073.87 725.805 1067.7 732.655L1075.13 739.345ZM1101.92 721C1108.59 721 1118.2 725.666 1131.08 737.221L1137.76 729.779C1124.63 718.001 1112.58 711 1101.92 711V721ZM1131.08 737.221C1143.91 748.738 1148.92 757.787 1148.92 764.5H1158.92C1158.92 753.213 1150.92 741.595 1137.76 729.779L1131.08 737.221ZM1148.92 764.5C1148.92 771.512 1144.4 780.8 1133.28 792.567L1140.55 799.433C1152.11 787.2 1158.92 775.488 1158.92 764.5H1148.92ZM1133.22 792.636L1032.72 903.136L1040.12 909.864L1140.62 799.364L1133.22 792.636ZM1471.02 739L1475.26 741.65L1475.26 741.65L1471.02 739ZM1545.02 733.5L1541.95 737.447L1541.95 737.447L1545.02 733.5ZM1551.52 744L1546.72 745.374L1546.76 745.52L1546.81 745.664L1551.52 744ZM1513.52 1041L1517.46 1044.09L1517.48 1044.05L1517.51 1044.02L1513.52 1041ZM1462.02 1082.5L1464.23 1086.99L1464.26 1086.97L1464.29 1086.96L1462.02 1082.5ZM1322.52 1082L1320.23 1086.44L1320.24 1086.45L1320.26 1086.46L1322.52 1082ZM1272.02 1040L1276.02 1037L1276.01 1036.98L1276 1036.96L1272.02 1040ZM1232.02 752L1227.09 751.178L1227.06 751.362L1227.04 751.547L1232.02 752ZM1237.02 738.5L1241.44 740.853L1241.44 740.853L1237.02 738.5ZM1250.52 728L1249.02 723.232L1249.02 723.232L1250.52 728ZM1301.52 728L1300.02 732.768L1300.02 732.768L1301.52 728ZM1314.52 738.5L1309.99 740.614L1310.04 740.715L1310.09 740.813L1314.52 738.5ZM1335.52 978L1339.93 975.639L1339.92 975.622L1339.91 975.606L1335.52 978ZM1358.02 1000.5L1360.49 996.15L1360.49 996.15L1358.02 1000.5ZM1448.02 982L1452.18 984.773L1452.18 984.773L1448.02 982ZM1475.26 741.65C1477.93 737.385 1481.76 734.431 1487.03 732.768L1484.02 723.232C1476.62 725.569 1470.78 729.948 1466.78 736.35L1475.26 741.65ZM1487.03 732.768C1492.72 730.97 1500.01 730 1509.02 730V720C1499.37 720 1490.99 721.03 1484.02 723.232L1487.03 732.768ZM1509.02 730C1518.47 730 1525.6 730.823 1530.61 732.297L1533.43 722.703C1527.11 720.844 1518.91 720 1509.02 720V730ZM1530.61 732.297C1535.97 733.874 1539.64 735.651 1541.95 737.447L1548.09 729.553C1544.4 726.682 1539.41 724.459 1533.43 722.703L1530.61 732.297ZM1541.95 737.447C1543.91 738.968 1545.59 741.443 1546.72 745.374L1556.33 742.626C1554.79 737.223 1552.14 732.699 1548.09 729.553L1541.95 737.447ZM1546.81 745.664C1548.52 750.503 1549.52 758.471 1549.52 770H1559.52C1559.52 758.196 1558.53 748.83 1556.24 742.336L1546.81 745.664ZM1549.52 770V921H1559.52V770H1549.52ZM1549.52 921C1549.52 963.876 1536.23 1002.82 1509.54 1037.98L1517.51 1044.02C1545.48 1007.18 1559.52 966.124 1559.52 921H1549.52ZM1509.59 1037.91C1496.75 1054.29 1480.17 1067.68 1459.76 1078.04L1464.29 1086.96C1485.88 1075.99 1503.64 1061.71 1517.46 1044.09L1509.59 1037.91ZM1459.82 1078.01C1439.57 1087.98 1417 1093 1392.02 1093V1103C1418.38 1103 1442.48 1097.69 1464.23 1086.99L1459.82 1078.01ZM1392.02 1093C1367.42 1093 1345.03 1087.83 1324.79 1077.54L1320.26 1086.46C1342.01 1097.51 1365.96 1103 1392.02 1103V1093ZM1324.82 1077.56C1304.77 1067.21 1288.54 1053.69 1276.02 1037L1268.02 1043C1281.51 1060.98 1298.94 1075.46 1320.23 1086.44L1324.82 1077.56ZM1276 1036.96C1249.67 1002.51 1236.52 963.575 1236.52 920H1226.52C1226.52 965.759 1240.38 1006.83 1268.05 1043.04L1276 1036.96ZM1236.52 920V769.5H1226.52V920H1236.52ZM1236.52 769.5C1236.52 761.519 1236.69 755.878 1237 752.453L1227.04 751.547C1226.69 755.455 1226.52 761.481 1226.52 769.5H1236.52ZM1236.96 752.822C1237.51 749.523 1238.93 745.549 1241.44 740.853L1232.61 736.147C1229.78 741.451 1227.87 746.477 1227.09 751.178L1236.96 752.822ZM1241.44 740.853C1243.38 737.204 1246.71 734.447 1252.03 732.768L1249.02 723.232C1241.67 725.553 1236 729.796 1232.61 736.147L1241.44 740.853ZM1252.03 732.768C1257.67 730.986 1265.6 730 1276.02 730V720C1265.12 720 1256.04 721.014 1249.02 723.232L1252.03 732.768ZM1276.02 730C1286.45 730 1294.38 730.986 1300.02 732.768L1303.03 723.232C1296.01 721.014 1286.93 720 1276.02 720V730ZM1300.02 732.768C1305.31 734.439 1308.37 737.139 1309.99 740.614L1319.05 736.386C1316.01 729.861 1310.4 725.561 1303.03 723.232L1300.02 732.768ZM1310.09 740.813C1313.57 747.482 1315.52 757.076 1315.52 770H1325.52C1325.52 756.258 1323.48 744.852 1318.96 736.187L1310.09 740.813ZM1315.52 770V920H1325.52V770H1315.52ZM1315.52 920C1315.52 941.193 1320.74 961.347 1331.13 980.394L1339.91 975.606C1330.3 957.986 1325.52 939.473 1325.52 920H1315.52ZM1331.12 980.361C1336.6 990.599 1344.81 998.759 1355.56 1004.85L1360.49 996.15C1351.24 990.908 1344.45 984.068 1339.93 975.639L1331.12 980.361ZM1355.56 1004.85C1366.44 1011.02 1379.16 1014 1393.52 1014V1004C1380.56 1004 1369.61 1001.32 1360.49 996.15L1355.56 1004.85ZM1393.52 1014C1419.28 1014 1439.13 1004.36 1452.18 984.773L1443.86 979.226C1432.92 995.644 1416.43 1004 1393.52 1004V1014ZM1452.18 984.773C1464.78 965.875 1471.02 944.057 1471.02 919.5H1461.02C1461.02 942.276 1455.26 962.125 1443.86 979.226L1452.18 984.773ZM1471.02 919.5V766.5H1461.02V919.5H1471.02ZM1471.02 766.5C1471.02 753.629 1472.73 745.706 1475.26 741.65L1466.78 736.35C1462.65 742.961 1461.02 753.371 1461.02 766.5H1471.02Z" fill="white"/>
<path d="M282 290.5L277.886 287.658L275.715 290.801L278.177 293.722L282 290.5ZM311.5 369L316.499 369.1L316.5 369.05V369H311.5ZM277 453L273.438 449.491L273.438 449.491L277 453ZM24 467.5L28.7679 465.994L28.7428 465.915L28.715 465.836L24 467.5ZM21.5 146.5L16.5807 145.606L16.5407 145.825L16.5205 146.047L21.5 146.5ZM26.5 133.5L30.9118 135.853L30.9254 135.827L30.9388 135.802L26.5 133.5ZM268.5 152L264.909 155.479L264.936 155.507L264.964 155.536L268.5 152ZM220 345L215.291 346.682L215.343 346.827L215.404 346.97L220 345ZM211 335L213.095 330.46L212.977 330.406L212.857 330.358L211 335ZM156 324L152.93 327.947L152.93 327.947L156 324ZM156 266.5L153.034 262.475L152.982 262.513L152.93 262.553L156 266.5ZM211 249L215.672 250.78L215.759 250.551L215.824 250.316L211 249ZM204 213.5L201.35 217.74L201.407 217.776L201.465 217.81L204 213.5ZM109.5 208.5V203.5H104.5V208.5H109.5ZM109.5 398H104.5V403H109.5V398ZM278.177 293.722C297.127 316.205 306.5 341.244 306.5 369H316.5C316.5 338.756 306.207 311.462 285.823 287.278L278.177 293.722ZM306.501 368.9C305.859 401.022 294.828 427.782 273.438 449.491L280.562 456.509C303.839 432.885 315.808 403.644 316.499 369.1L306.501 368.9ZM273.438 449.491C252.388 470.86 226.843 481.5 196.5 481.5V491.5C229.491 491.5 257.612 479.807 280.562 456.509L273.438 449.491ZM196.5 481.5H65V491.5H196.5V481.5ZM65 481.5C41.9966 481.5 31.6869 475.238 28.7679 465.994L19.2321 469.006C24.3131 485.096 41.3367 491.5 65 491.5V481.5ZM28.715 465.836C27.0071 460.997 26 453.029 26 441.5H16C16 453.304 16.9929 462.67 19.2851 469.164L28.715 465.836ZM26 441.5V164H16V441.5H26ZM26 164C26 156.019 26.1681 150.378 26.4795 146.953L16.5205 146.047C16.1653 149.955 16 155.981 16 164H26ZM26.4193 147.394C26.9585 144.429 28.3758 140.608 30.9118 135.853L22.0882 131.147C19.2909 136.392 17.3749 141.237 16.5807 145.606L26.4193 147.394ZM30.9388 135.802C32.4984 132.794 35.6558 130.083 41.3856 128.1C47.1527 126.104 55.1182 125 65.5 125V115C54.5484 115 45.3473 116.146 38.1144 118.65C30.8442 121.167 25.1683 125.206 22.0612 131.198L30.9388 135.802ZM65.5 125H191.5V115H65.5V125ZM191.5 125C220.862 125 245.218 135.153 264.909 155.479L272.091 148.521C250.449 126.181 223.471 115 191.5 115V125ZM264.964 155.536C285.704 176.275 296 201.008 296 230H306C306 198.326 294.629 171.058 272.036 148.464L264.964 155.536ZM296 230C296 250.971 289.984 270.148 277.886 287.658L286.114 293.342C299.35 274.185 306 253.029 306 230H296ZM228 364C228 355.67 226.972 348.574 224.596 343.03L215.404 346.97C217.028 350.759 218 356.33 218 364H228ZM224.709 343.318C222.61 337.441 218.7 333.047 213.095 330.46L208.905 339.54C211.967 340.953 214.057 343.226 215.291 346.682L224.709 343.318ZM212.857 330.358C205.333 327.348 195.267 326 183 326V336C194.733 336 203.333 337.319 209.143 339.642L212.857 330.358ZM183 326C171.51 326 163.813 323.742 159.07 320.053L152.93 327.947C160.187 333.591 170.49 336 183 336V326ZM159.07 320.053C155.025 316.907 152 309.56 152 295.5H142C142 310.106 144.975 321.76 152.93 327.947L159.07 320.053ZM152 295.5C152 281.059 155.044 273.578 159.07 270.447L152.93 262.553C144.956 268.756 142 280.608 142 295.5H152ZM158.966 270.525C163.98 266.831 172.968 264.5 187 264.5V254.5C172.365 254.5 160.687 256.836 153.034 262.475L158.966 270.525ZM187 264.5C200.657 264.5 211.796 260.955 215.672 250.78L206.328 247.22C204.871 251.045 200.009 254.5 187 254.5V264.5ZM215.824 250.316C217.013 245.956 217.5 239.379 217.5 231H207.5C207.5 239.288 206.987 244.71 206.176 247.684L215.824 250.316ZM217.5 231C217.5 221.442 214.148 213.669 206.535 209.19L201.465 217.81C205.185 219.998 207.5 223.891 207.5 231H217.5ZM206.65 209.26C200.126 205.183 190.823 203.5 179.5 203.5V213.5C190.177 213.5 197.207 215.151 201.35 217.74L206.65 209.26ZM179.5 203.5H109.5V213.5H179.5V203.5ZM104.5 208.5V398H114.5V208.5H104.5ZM109.5 403H191.5V393H109.5V403ZM191.5 403C202.873 403 212.293 399.913 218.793 392.898C225.225 385.955 228 376.013 228 364H218C218 374.653 215.525 381.712 211.457 386.102C207.457 390.42 201.127 393 191.5 393V403ZM694.742 169.5L698.245 165.932L698.245 165.932L694.742 169.5ZM697.242 437.5L700.891 440.919L700.899 440.91L700.906 440.902L697.242 437.5ZM439.742 438L436.142 441.469L436.15 441.478L436.158 441.486L439.742 438ZM401.742 229.5L406.358 231.423L406.362 231.412L406.367 231.401L401.742 229.5ZM441.742 168.5L445.242 172.071L445.242 172.071L441.742 168.5ZM499.242 130L497.264 125.408L497.264 125.408L499.242 130ZM503.742 377L500.238 380.567L500.27 380.598L500.302 380.628L503.742 377ZM632.242 377.5L635.681 381.13L635.681 381.13L632.242 377.5ZM631.742 232L628.27 235.598L628.286 235.613L628.302 235.628L631.742 232ZM503.742 232.5L507.214 236.098L507.23 236.082L507.246 236.067L503.742 232.5ZM566.242 121C614.219 121 655.808 138.286 691.24 173.068L698.245 165.932C661.01 129.38 616.932 111 566.242 111V121ZM691.24 173.068C726.572 207.752 744.242 250.781 744.242 302.5H754.242C754.242 248.219 735.579 202.581 698.245 165.932L691.24 173.068ZM744.242 302.5C744.242 353.952 727.355 397.723 693.578 434.098L700.906 440.902C736.463 402.61 754.242 356.382 754.242 302.5H744.242ZM693.593 434.081C659.871 470.073 618.525 488 569.242 488V498C621.293 498 665.28 478.927 700.891 440.919L693.593 434.081ZM569.242 488C519.94 488 478.062 470.223 443.326 434.514L436.158 441.486C472.756 479.11 517.211 498 569.242 498V488ZM443.343 434.531C408.902 398.79 391.742 356.365 391.742 307H381.742C381.742 358.968 399.916 403.876 436.142 441.469L443.343 434.531ZM391.742 307C391.742 279.951 396.627 254.775 406.358 231.423L397.127 227.577C386.857 252.225 381.742 278.716 381.742 307H391.742ZM406.367 231.401C416.142 207.615 429.118 187.873 445.242 172.071L438.243 164.929C421.033 181.794 407.343 202.719 397.117 227.599L406.367 231.401ZM445.242 172.071C461.464 156.174 480.113 143.684 501.22 134.592L497.264 125.408C475.038 134.982 455.354 148.16 438.243 164.929L445.242 172.071ZM501.22 134.592C522.279 125.521 543.94 121 566.242 121V111C542.544 111 519.539 115.813 497.264 125.408L501.22 134.592ZM470.242 304.5C470.242 335.34 480.168 360.849 500.238 380.567L507.246 373.433C489.316 355.818 480.242 332.993 480.242 304.5H470.242ZM500.302 380.628C520.437 399.722 543.131 409.5 568.242 409.5V399.5C546.02 399.5 525.714 390.944 507.183 373.372L500.302 380.628ZM568.242 409.5C593.328 409.5 615.859 399.908 635.681 381.13L628.803 373.87C610.625 391.092 590.489 399.5 568.242 399.5V409.5ZM635.681 381.13C655.838 362.033 665.742 336.468 665.742 305H655.742C655.742 334.199 646.646 356.967 628.803 373.87L635.681 381.13ZM665.742 305C665.742 273.503 655.653 247.784 635.183 228.372L628.302 235.628C646.498 252.883 655.742 275.83 655.742 305H665.742ZM635.214 228.402C615.399 209.282 592.858 199.5 567.742 199.5V209.5C589.959 209.5 610.085 218.051 628.27 235.598L635.214 228.402ZM567.742 199.5C542.596 199.5 520.045 209.473 500.238 228.933L507.246 236.067C525.439 218.193 545.555 209.5 567.742 209.5V199.5ZM500.27 228.902C480.169 248.298 470.242 273.66 470.242 304.5H480.242C480.242 276.006 489.316 253.368 507.214 236.098L500.27 228.902ZM1037.42 301.5L1033.72 298.136L1030.66 301.5L1033.72 304.864L1037.42 301.5ZM1137.92 412L1141.64 408.666L1141.63 408.651L1141.62 408.636L1137.92 412ZM1135.42 474.5L1132.08 470.779L1132.05 470.8L1132.03 470.822L1135.42 474.5ZM1072.42 472L1068.65 475.285L1068.66 475.293L1072.42 472ZM977.418 363L981.187 359.715L977.418 355.39L973.649 359.715L977.418 363ZM882.418 472L886.134 475.345L886.161 475.315L886.187 475.285L882.418 472ZM818.918 474.5L815.527 478.174L815.575 478.219L815.625 478.263L818.918 474.5ZM816.918 412L813.219 408.636L813.208 408.648L813.197 408.66L816.918 412ZM917.418 301.5L921.117 304.864L924.177 301.5L921.117 298.136L917.418 301.5ZM816.918 191L820.617 187.636L820.584 187.6L820.55 187.564L816.918 191ZM818.918 129L822.258 132.721L822.284 132.698L822.309 132.674L818.918 129ZM882.418 131L886.187 127.715L886.181 127.707L882.418 131ZM977.418 240L973.649 243.285L977.418 247.61L981.187 243.285L977.418 240ZM1072.42 131L1068.7 127.655L1068.67 127.685L1068.65 127.715L1072.42 131ZM1135.42 128.5L1132.08 132.221L1132.08 132.221L1135.42 128.5ZM1137.92 191L1134.28 187.567L1134.25 187.601L1134.22 187.636L1137.92 191ZM1033.72 304.864L1134.22 415.364L1141.62 408.636L1041.12 298.136L1033.72 304.864ZM1134.19 415.334C1145.39 427.844 1149.92 437.3 1149.92 444H1159.92C1159.92 433.367 1153.12 421.489 1141.64 408.666L1134.19 415.334ZM1149.92 444C1149.92 450.344 1144.96 459.215 1132.08 470.779L1138.76 478.221C1151.87 466.452 1159.92 454.99 1159.92 444H1149.92ZM1132.03 470.822C1119.55 482.32 1109.93 487 1102.92 487V497C1113.91 497 1125.95 490.014 1138.81 478.178L1132.03 470.822ZM1102.92 487C1099.88 487 1096.12 485.825 1091.53 482.819C1086.96 479.819 1081.84 475.174 1076.18 468.707L1068.66 475.293C1074.66 482.16 1080.46 487.514 1086.05 491.181C1091.63 494.842 1097.29 497 1102.92 497V487ZM1076.19 468.715L981.187 359.715L973.649 366.285L1068.65 475.285L1076.19 468.715ZM973.649 359.715L878.649 468.715L886.187 475.285L981.187 366.285L973.649 359.715ZM878.702 468.655C872.875 475.129 867.625 479.787 862.957 482.799C858.275 485.819 854.466 487 851.418 487V497C857.036 497 862.727 494.848 868.379 491.201C874.044 487.546 879.961 482.204 886.134 475.345L878.702 468.655ZM851.418 487C848.38 487 844.423 485.92 839.413 483.223C834.437 480.543 828.707 476.421 822.21 470.737L815.625 478.263C822.462 484.245 828.816 488.874 834.672 492.027C840.496 495.163 846.123 497 851.418 497V487ZM822.309 470.826C815.992 464.995 811.445 459.779 808.506 455.182C805.552 450.561 804.418 446.875 804.418 444H794.418C794.418 449.458 796.534 455.022 800.08 460.568C803.641 466.137 808.844 472.005 815.527 478.174L822.309 470.826ZM804.418 444C804.418 440.969 805.493 437.061 808.18 432.149C810.851 427.265 814.962 421.666 820.639 415.34L813.197 408.66C807.208 415.334 802.569 421.568 799.406 427.351C796.259 433.105 794.418 438.698 794.418 444H804.418ZM820.617 415.364L921.117 304.864L913.719 298.136L813.219 408.636L820.617 415.364ZM921.117 298.136L820.617 187.636L813.219 194.364L913.719 304.864L921.117 298.136ZM820.55 187.564C809.029 175.385 804.418 166.119 804.418 159.5H794.418C794.418 170.215 801.473 181.949 813.286 194.436L820.55 187.564ZM804.418 159.5C804.418 153.156 809.372 144.285 822.258 132.721L815.578 125.279C802.464 137.048 794.418 148.51 794.418 159.5H804.418ZM822.309 132.674C835.203 120.773 844.796 116 851.418 116V106C840.706 106 828.633 113.227 815.527 125.326L822.309 132.674ZM851.418 116C858.078 116 867.117 121.106 878.655 134.293L886.181 127.707C874.385 114.227 862.758 106 851.418 106V116ZM878.649 134.285L973.649 243.285L981.187 236.715L886.187 127.715L878.649 134.285ZM981.187 243.285L1076.19 134.285L1068.65 127.715L973.649 236.715L981.187 243.285ZM1076.13 134.345C1081.97 127.861 1087.19 123.196 1091.78 120.181C1096.41 117.15 1100.08 116 1102.92 116V106C1097.43 106 1091.85 108.183 1086.3 111.819C1080.73 115.471 1074.87 120.805 1068.7 127.655L1076.13 134.345ZM1102.92 116C1109.59 116 1119.2 120.666 1132.08 132.221L1138.76 124.779C1125.63 113.001 1113.58 106 1102.92 106V116ZM1132.08 132.221C1144.91 143.738 1149.92 152.787 1149.92 159.5H1159.92C1159.92 148.213 1151.92 136.595 1138.76 124.779L1132.08 132.221ZM1149.92 159.5C1149.92 166.512 1145.4 175.8 1134.28 187.567L1141.55 194.433C1153.11 182.2 1159.92 170.488 1159.92 159.5H1149.92ZM1134.22 187.636L1033.72 298.136L1041.12 304.864L1141.62 194.364L1134.22 187.636ZM1472.02 134L1476.26 136.65L1476.26 136.65L1472.02 134ZM1546.02 128.5L1542.95 132.447L1542.95 132.447L1546.02 128.5ZM1552.52 139L1547.72 140.374L1547.76 140.52L1547.81 140.664L1552.52 139ZM1514.52 436L1518.46 439.086L1518.48 439.055L1518.51 439.024L1514.52 436ZM1463.02 477.5L1465.23 481.986L1465.26 481.972L1465.29 481.958L1463.02 477.5ZM1323.52 477L1321.23 481.443L1321.24 481.451L1321.26 481.458L1323.52 477ZM1273.02 435L1277.02 432L1277.01 431.982L1277 431.964L1273.02 435ZM1233.02 147L1228.09 146.178L1228.06 146.362L1228.04 146.547L1233.02 147ZM1238.02 133.5L1242.44 135.853L1242.44 135.853L1238.02 133.5ZM1251.52 123L1250.02 118.232L1250.02 118.232L1251.52 123ZM1302.52 123L1301.02 127.768L1301.02 127.768L1302.52 123ZM1315.52 133.5L1310.99 135.614L1311.04 135.715L1311.09 135.813L1315.52 133.5ZM1336.52 373L1340.93 370.639L1340.92 370.622L1340.91 370.606L1336.52 373ZM1359.02 395.5L1361.49 391.15L1361.49 391.15L1359.02 395.5ZM1449.02 377L1453.18 379.773L1453.18 379.773L1449.02 377ZM1476.26 136.65C1478.93 132.385 1482.76 129.431 1488.03 127.768L1485.02 118.232C1477.62 120.569 1471.78 124.948 1467.78 131.35L1476.26 136.65ZM1488.03 127.768C1493.72 125.97 1501.01 125 1510.02 125V115C1500.37 115 1491.99 116.03 1485.02 118.232L1488.03 127.768ZM1510.02 125C1519.47 125 1526.6 125.823 1531.61 127.297L1534.43 117.703C1528.11 115.844 1519.91 115 1510.02 115V125ZM1531.61 127.297C1536.97 128.874 1540.64 130.651 1542.95 132.447L1549.09 124.553C1545.4 121.682 1540.41 119.459 1534.43 117.703L1531.61 127.297ZM1542.95 132.447C1544.91 133.968 1546.59 136.443 1547.72 140.374L1557.33 137.626C1555.79 132.223 1553.14 127.699 1549.09 124.553L1542.95 132.447ZM1547.81 140.664C1549.52 145.503 1550.52 153.471 1550.52 165H1560.52C1560.52 153.196 1559.53 143.83 1557.24 137.336L1547.81 140.664ZM1550.52 165V316H1560.52V165H1550.52ZM1550.52 316C1550.52 358.876 1537.23 397.821 1510.54 432.976L1518.51 439.024C1546.48 402.179 1560.52 361.124 1560.52 316H1550.52ZM1510.59 432.914C1497.75 449.29 1481.17 462.675 1460.76 473.042L1465.29 481.958C1486.88 470.991 1504.64 456.71 1518.46 439.086L1510.59 432.914ZM1460.82 473.014C1440.57 482.977 1418 488 1393.02 488V498C1419.38 498 1443.48 492.689 1465.23 481.986L1460.82 473.014ZM1393.02 488C1368.42 488 1346.03 482.826 1325.79 472.542L1321.26 481.458C1343.01 492.507 1366.96 498 1393.02 498V488ZM1325.82 472.557C1305.77 462.21 1289.54 448.686 1277.02 432L1269.02 438C1282.51 455.981 1299.94 470.456 1321.23 481.443L1325.82 472.557ZM1277 431.964C1250.67 397.507 1237.52 358.575 1237.52 315H1227.52C1227.52 360.759 1241.38 401.826 1269.05 438.036L1277 431.964ZM1237.52 315V164.5H1227.52V315H1237.52ZM1237.52 164.5C1237.52 156.519 1237.69 150.878 1238 147.453L1228.04 146.547C1227.69 150.455 1227.52 156.481 1227.52 164.5H1237.52ZM1237.96 147.822C1238.51 144.523 1239.93 140.549 1242.44 135.853L1233.61 131.147C1230.78 136.451 1228.87 141.477 1228.09 146.178L1237.96 147.822ZM1242.44 135.853C1244.38 132.204 1247.71 129.447 1253.03 127.768L1250.02 118.232C1242.67 120.553 1237 124.796 1233.61 131.147L1242.44 135.853ZM1253.03 127.768C1258.67 125.986 1266.6 125 1277.02 125V115C1266.12 115 1257.04 116.014 1250.02 118.232L1253.03 127.768ZM1277.02 125C1287.45 125 1295.38 125.986 1301.02 127.768L1304.03 118.232C1297.01 116.014 1287.93 115 1277.02 115V125ZM1301.02 127.768C1306.31 129.439 1309.37 132.139 1310.99 135.614L1320.05 131.386C1317.01 124.861 1311.4 120.561 1304.03 118.232L1301.02 127.768ZM1311.09 135.813C1314.57 142.482 1316.52 152.076 1316.52 165H1326.52C1326.52 151.258 1324.48 139.852 1319.96 131.187L1311.09 135.813ZM1316.52 165V315H1326.52V165H1316.52ZM1316.52 315C1316.52 336.193 1321.74 356.347 1332.13 375.394L1340.91 370.606C1331.3 352.986 1326.52 334.473 1326.52 315H1316.52ZM1332.12 375.361C1337.6 385.599 1345.81 393.759 1356.56 399.85L1361.49 391.15C1352.24 385.908 1345.45 379.068 1340.93 370.639L1332.12 375.361ZM1356.56 399.85C1367.44 406.017 1380.16 409 1394.52 409V399C1381.56 399 1370.61 396.317 1361.49 391.15L1356.56 399.85ZM1394.52 409C1420.28 409 1440.13 399.356 1453.18 379.773L1444.86 374.226C1433.92 390.644 1417.43 399 1394.52 399V409ZM1453.18 379.773C1465.78 360.875 1472.02 339.057 1472.02 314.5H1462.02C1462.02 337.276 1456.26 357.125 1444.86 374.226L1453.18 379.773ZM1472.02 314.5V161.5H1462.02V314.5H1472.02ZM1472.02 161.5C1472.02 148.629 1473.73 140.706 1476.26 136.65L1467.78 131.35C1463.65 137.961 1462.02 148.371 1462.02 161.5H1472.02Z" fill="white"/>
<path d="M281 1500.5L276.886 1497.66L274.715 1500.8L277.177 1503.72L281 1500.5ZM310.5 1579L315.499 1579.1L315.5 1579.05V1579H310.5ZM276 1663L272.438 1659.49L272.438 1659.49L276 1663ZM23 1677.5L27.7679 1675.99L27.7428 1675.91L27.715 1675.84L23 1677.5ZM20.5 1356.5L15.5807 1355.61L15.5407 1355.83L15.5205 1356.05L20.5 1356.5ZM25.5 1343.5L29.9118 1345.85L29.9254 1345.83L29.9388 1345.8L25.5 1343.5ZM267.5 1362L263.909 1365.48L263.936 1365.51L263.964 1365.54L267.5 1362ZM219 1555L214.291 1556.68L214.343 1556.83L214.404 1556.97L219 1555ZM210 1545L212.095 1540.46L211.977 1540.41L211.857 1540.36L210 1545ZM155 1534L151.93 1537.95L151.93 1537.95L155 1534ZM155 1476.5L152.034 1472.47L151.982 1472.51L151.93 1472.55L155 1476.5ZM210 1459L214.672 1460.78L214.759 1460.55L214.824 1460.32L210 1459ZM203 1423.5L200.35 1427.74L200.407 1427.78L200.465 1427.81L203 1423.5ZM108.5 1418.5V1413.5H103.5V1418.5H108.5ZM108.5 1608H103.5V1613H108.5V1608ZM277.177 1503.72C296.127 1526.21 305.5 1551.24 305.5 1579H315.5C315.5 1548.76 305.207 1521.46 284.823 1497.28L277.177 1503.72ZM305.501 1578.9C304.859 1611.02 293.828 1637.78 272.438 1659.49L279.562 1666.51C302.839 1642.88 314.808 1613.64 315.499 1579.1L305.501 1578.9ZM272.438 1659.49C251.388 1680.86 225.843 1691.5 195.5 1691.5V1701.5C228.491 1701.5 256.612 1689.81 279.562 1666.51L272.438 1659.49ZM195.5 1691.5H64V1701.5H195.5V1691.5ZM64 1691.5C40.9966 1691.5 30.6869 1685.24 27.7679 1675.99L18.2321 1679.01C23.3131 1695.1 40.3367 1701.5 64 1701.5V1691.5ZM27.715 1675.84C26.0071 1671 25 1663.03 25 1651.5H15C15 1663.3 15.9929 1672.67 18.2851 1679.16L27.715 1675.84ZM25 1651.5V1374H15V1651.5H25ZM25 1374C25 1366.02 25.1681 1360.38 25.4795 1356.95L15.5205 1356.05C15.1653 1359.96 15 1365.98 15 1374H25ZM25.4193 1357.39C25.9585 1354.43 27.3758 1350.61 29.9118 1345.85L21.0882 1341.15C18.2909 1346.39 16.3749 1351.24 15.5807 1355.61L25.4193 1357.39ZM29.9388 1345.8C31.4984 1342.79 34.6558 1340.08 40.3856 1338.1C46.1527 1336.1 54.1182 1335 64.5 1335V1325C53.5484 1325 44.3473 1326.15 37.1144 1328.65C29.8442 1331.17 24.1683 1335.21 21.0612 1341.2L29.9388 1345.8ZM64.5 1335H190.5V1325H64.5V1335ZM190.5 1335C219.862 1335 244.218 1345.15 263.909 1365.48L271.091 1358.52C249.449 1336.18 222.471 1325 190.5 1325V1335ZM263.964 1365.54C284.704 1386.28 295 1411.01 295 1440H305C305 1408.33 293.629 1381.06 271.036 1358.46L263.964 1365.54ZM295 1440C295 1460.97 288.984 1480.15 276.886 1497.66L285.114 1503.34C298.35 1484.18 305 1463.03 305 1440H295ZM227 1574C227 1565.67 225.972 1558.57 223.596 1553.03L214.404 1556.97C216.028 1560.76 217 1566.33 217 1574H227ZM223.709 1553.32C221.61 1547.44 217.7 1543.05 212.095 1540.46L207.905 1549.54C210.967 1550.95 213.057 1553.23 214.291 1556.68L223.709 1553.32ZM211.857 1540.36C204.333 1537.35 194.267 1536 182 1536V1546C193.733 1546 202.333 1547.32 208.143 1549.64L211.857 1540.36ZM182 1536C170.51 1536 162.813 1533.74 158.07 1530.05L151.93 1537.95C159.187 1543.59 169.49 1546 182 1546V1536ZM158.07 1530.05C154.025 1526.91 151 1519.56 151 1505.5H141C141 1520.11 143.975 1531.76 151.93 1537.95L158.07 1530.05ZM151 1505.5C151 1491.06 154.044 1483.58 158.07 1480.45L151.93 1472.55C143.956 1478.76 141 1490.61 141 1505.5H151ZM157.966 1480.53C162.98 1476.83 171.968 1474.5 186 1474.5V1464.5C171.365 1464.5 159.687 1466.84 152.034 1472.47L157.966 1480.53ZM186 1474.5C199.657 1474.5 210.796 1470.96 214.672 1460.78L205.328 1457.22C203.871 1461.04 199.009 1464.5 186 1464.5V1474.5ZM214.824 1460.32C216.013 1455.96 216.5 1449.38 216.5 1441H206.5C206.5 1449.29 205.987 1454.71 205.176 1457.68L214.824 1460.32ZM216.5 1441C216.5 1431.44 213.148 1423.67 205.535 1419.19L200.465 1427.81C204.185 1430 206.5 1433.89 206.5 1441H216.5ZM205.65 1419.26C199.126 1415.18 189.823 1413.5 178.5 1413.5V1423.5C189.177 1423.5 196.207 1425.15 200.35 1427.74L205.65 1419.26ZM178.5 1413.5H108.5V1423.5H178.5V1413.5ZM103.5 1418.5V1608H113.5V1418.5H103.5ZM108.5 1613H190.5V1603H108.5V1613ZM190.5 1613C201.873 1613 211.293 1609.91 217.793 1602.9C224.225 1595.96 227 1586.01 227 1574H217C217 1584.65 214.525 1591.71 210.457 1596.1C206.457 1600.42 200.127 1603 190.5 1603V1613ZM693.742 1379.5L697.245 1375.93L697.245 1375.93L693.742 1379.5ZM696.242 1647.5L699.891 1650.92L699.899 1650.91L699.906 1650.9L696.242 1647.5ZM438.742 1648L435.142 1651.47L435.15 1651.48L435.158 1651.49L438.742 1648ZM400.742 1439.5L405.358 1441.42L405.362 1441.41L405.367 1441.4L400.742 1439.5ZM440.742 1378.5L444.242 1382.07L444.242 1382.07L440.742 1378.5ZM498.242 1340L496.264 1335.41L496.264 1335.41L498.242 1340ZM502.742 1587L499.238 1590.57L499.27 1590.6L499.302 1590.63L502.742 1587ZM631.242 1587.5L634.681 1591.13L634.681 1591.13L631.242 1587.5ZM630.742 1442L627.27 1445.6L627.286 1445.61L627.302 1445.63L630.742 1442ZM502.742 1442.5L506.214 1446.1L506.23 1446.08L506.246 1446.07L502.742 1442.5ZM565.242 1331C613.219 1331 654.808 1348.29 690.24 1383.07L697.245 1375.93C660.01 1339.38 615.932 1321 565.242 1321V1331ZM690.24 1383.07C725.572 1417.75 743.242 1460.78 743.242 1512.5H753.242C753.242 1458.22 734.579 1412.58 697.245 1375.93L690.24 1383.07ZM743.242 1512.5C743.242 1563.95 726.355 1607.72 692.578 1644.1L699.906 1650.9C735.463 1612.61 753.242 1566.38 753.242 1512.5H743.242ZM692.593 1644.08C658.871 1680.07 617.525 1698 568.242 1698V1708C620.293 1708 664.28 1688.93 699.891 1650.92L692.593 1644.08ZM568.242 1698C518.94 1698 477.062 1680.22 442.326 1644.51L435.158 1651.49C471.756 1689.11 516.211 1708 568.242 1708V1698ZM442.343 1644.53C407.902 1608.79 390.742 1566.37 390.742 1517H380.742C380.742 1568.97 398.916 1613.88 435.142 1651.47L442.343 1644.53ZM390.742 1517C390.742 1489.95 395.627 1464.78 405.358 1441.42L396.127 1437.58C385.857 1462.22 380.742 1488.72 380.742 1517H390.742ZM405.367 1441.4C415.142 1417.61 428.118 1397.87 444.242 1382.07L437.243 1374.93C420.033 1391.79 406.343 1412.72 396.117 1437.6L405.367 1441.4ZM444.242 1382.07C460.464 1366.17 479.113 1353.68 500.22 1344.59L496.264 1335.41C474.038 1344.98 454.354 1358.16 437.243 1374.93L444.242 1382.07ZM500.22 1344.59C521.279 1335.52 542.94 1331 565.242 1331V1321C541.544 1321 518.539 1325.81 496.264 1335.41L500.22 1344.59ZM469.242 1514.5C469.242 1545.34 479.168 1570.85 499.238 1590.57L506.246 1583.43C488.316 1565.82 479.242 1542.99 479.242 1514.5H469.242ZM499.302 1590.63C519.437 1609.72 542.131 1619.5 567.242 1619.5V1609.5C545.02 1609.5 524.714 1600.94 506.183 1583.37L499.302 1590.63ZM567.242 1619.5C592.328 1619.5 614.859 1609.91 634.681 1591.13L627.803 1583.87C609.625 1601.09 589.489 1609.5 567.242 1609.5V1619.5ZM634.681 1591.13C654.838 1572.03 664.742 1546.47 664.742 1515H654.742C654.742 1544.2 645.646 1566.97 627.803 1583.87L634.681 1591.13ZM664.742 1515C664.742 1483.5 654.653 1457.78 634.183 1438.37L627.302 1445.63C645.498 1462.88 654.742 1485.83 654.742 1515H664.742ZM634.214 1438.4C614.399 1419.28 591.858 1409.5 566.742 1409.5V1419.5C588.959 1419.5 609.085 1428.05 627.27 1445.6L634.214 1438.4ZM566.742 1409.5C541.596 1409.5 519.045 1419.47 499.238 1438.93L506.246 1446.07C524.439 1428.19 544.555 1419.5 566.742 1419.5V1409.5ZM499.27 1438.9C479.169 1458.3 469.242 1483.66 469.242 1514.5H479.242C479.242 1486.01 488.316 1463.37 506.214 1446.1L499.27 1438.9ZM1036.42 1511.5L1032.72 1508.14L1029.66 1511.5L1032.72 1514.86L1036.42 1511.5ZM1136.92 1622L1140.64 1618.67L1140.63 1618.65L1140.62 1618.64L1136.92 1622ZM1134.42 1684.5L1131.08 1680.78L1131.05 1680.8L1131.03 1680.82L1134.42 1684.5ZM1071.42 1682L1067.65 1685.29L1067.66 1685.29L1071.42 1682ZM976.418 1573L980.187 1569.71L976.418 1565.39L972.649 1569.71L976.418 1573ZM881.418 1682L885.134 1685.34L885.161 1685.32L885.187 1685.29L881.418 1682ZM817.918 1684.5L814.527 1688.17L814.575 1688.22L814.625 1688.26L817.918 1684.5ZM815.918 1622L812.219 1618.64L812.208 1618.65L812.197 1618.66L815.918 1622ZM916.418 1511.5L920.117 1514.86L923.177 1511.5L920.117 1508.14L916.418 1511.5ZM815.918 1401L819.617 1397.64L819.584 1397.6L819.55 1397.56L815.918 1401ZM817.918 1339L821.258 1342.72L821.284 1342.7L821.309 1342.67L817.918 1339ZM881.418 1341L885.187 1337.71L885.181 1337.71L881.418 1341ZM976.418 1450L972.649 1453.29L976.418 1457.61L980.187 1453.29L976.418 1450ZM1071.42 1341L1067.7 1337.66L1067.67 1337.68L1067.65 1337.71L1071.42 1341ZM1134.42 1338.5L1131.08 1342.22L1131.08 1342.22L1134.42 1338.5ZM1136.92 1401L1133.28 1397.57L1133.25 1397.6L1133.22 1397.64L1136.92 1401ZM1032.72 1514.86L1133.22 1625.36L1140.62 1618.64L1040.12 1508.14L1032.72 1514.86ZM1133.19 1625.33C1144.39 1637.84 1148.92 1647.3 1148.92 1654H1158.92C1158.92 1643.37 1152.12 1631.49 1140.64 1618.67L1133.19 1625.33ZM1148.92 1654C1148.92 1660.34 1143.96 1669.21 1131.08 1680.78L1137.76 1688.22C1150.87 1676.45 1158.92 1664.99 1158.92 1654H1148.92ZM1131.03 1680.82C1118.55 1692.32 1108.93 1697 1101.92 1697V1707C1112.91 1707 1124.95 1700.01 1137.81 1688.18L1131.03 1680.82ZM1101.92 1697C1098.88 1697 1095.12 1695.82 1090.53 1692.82C1085.96 1689.82 1080.84 1685.17 1075.18 1678.71L1067.66 1685.29C1073.66 1692.16 1079.46 1697.51 1085.05 1701.18C1090.63 1704.84 1096.29 1707 1101.92 1707V1697ZM1075.19 1678.71L980.187 1569.71L972.649 1576.29L1067.65 1685.29L1075.19 1678.71ZM972.649 1569.71L877.649 1678.71L885.187 1685.29L980.187 1576.29L972.649 1569.71ZM877.702 1678.66C871.875 1685.13 866.625 1689.79 861.957 1692.8C857.275 1695.82 853.466 1697 850.418 1697V1707C856.036 1707 861.727 1704.85 867.379 1701.2C873.044 1697.55 878.961 1692.2 885.134 1685.34L877.702 1678.66ZM850.418 1697C847.38 1697 843.423 1695.92 838.413 1693.22C833.437 1690.54 827.707 1686.42 821.21 1680.74L814.625 1688.26C821.462 1694.25 827.816 1698.87 833.672 1702.03C839.496 1705.16 845.123 1707 850.418 1707V1697ZM821.309 1680.83C814.992 1674.99 810.445 1669.78 807.506 1665.18C804.552 1660.56 803.418 1656.87 803.418 1654H793.418C793.418 1659.46 795.534 1665.02 799.08 1670.57C802.641 1676.14 807.844 1682.01 814.527 1688.17L821.309 1680.83ZM803.418 1654C803.418 1650.97 804.493 1647.06 807.18 1642.15C809.851 1637.27 813.962 1631.67 819.639 1625.34L812.197 1618.66C806.208 1625.33 801.569 1631.57 798.406 1637.35C795.259 1643.11 793.418 1648.7 793.418 1654H803.418ZM819.617 1625.36L920.117 1514.86L912.719 1508.14L812.219 1618.64L819.617 1625.36ZM920.117 1508.14L819.617 1397.64L812.219 1404.36L912.719 1514.86L920.117 1508.14ZM819.55 1397.56C808.029 1385.38 803.418 1376.12 803.418 1369.5H793.418C793.418 1380.21 800.473 1391.95 812.286 1404.44L819.55 1397.56ZM803.418 1369.5C803.418 1363.16 808.372 1354.29 821.258 1342.72L814.578 1335.28C801.464 1347.05 793.418 1358.51 793.418 1369.5H803.418ZM821.309 1342.67C834.203 1330.77 843.796 1326 850.418 1326V1316C839.706 1316 827.633 1323.23 814.527 1335.33L821.309 1342.67ZM850.418 1326C857.078 1326 866.117 1331.11 877.655 1344.29L885.181 1337.71C873.385 1324.23 861.758 1316 850.418 1316V1326ZM877.649 1344.29L972.649 1453.29L980.187 1446.71L885.187 1337.71L877.649 1344.29ZM980.187 1453.29L1075.19 1344.29L1067.65 1337.71L972.649 1446.71L980.187 1453.29ZM1075.13 1344.34C1080.97 1337.86 1086.19 1333.2 1090.78 1330.18C1095.41 1327.15 1099.08 1326 1101.92 1326V1316C1096.43 1316 1090.85 1318.18 1085.3 1321.82C1079.73 1325.47 1073.87 1330.81 1067.7 1337.66L1075.13 1344.34ZM1101.92 1326C1108.59 1326 1118.2 1330.67 1131.08 1342.22L1137.76 1334.78C1124.63 1323 1112.58 1316 1101.92 1316V1326ZM1131.08 1342.22C1143.91 1353.74 1148.92 1362.79 1148.92 1369.5H1158.92C1158.92 1358.21 1150.92 1346.6 1137.76 1334.78L1131.08 1342.22ZM1148.92 1369.5C1148.92 1376.51 1144.4 1385.8 1133.28 1397.57L1140.55 1404.43C1152.11 1392.2 1158.92 1380.49 1158.92 1369.5H1148.92ZM1133.22 1397.64L1032.72 1508.14L1040.12 1514.86L1140.62 1404.36L1133.22 1397.64ZM1471.02 1344L1475.26 1346.65L1475.26 1346.65L1471.02 1344ZM1545.02 1338.5L1541.95 1342.45L1541.95 1342.45L1545.02 1338.5ZM1551.52 1349L1546.72 1350.37L1546.76 1350.52L1546.81 1350.66L1551.52 1349ZM1513.52 1646L1517.46 1649.09L1517.48 1649.05L1517.51 1649.02L1513.52 1646ZM1462.02 1687.5L1464.23 1691.99L1464.26 1691.97L1464.29 1691.96L1462.02 1687.5ZM1322.52 1687L1320.23 1691.44L1320.24 1691.45L1320.26 1691.46L1322.52 1687ZM1272.02 1645L1276.02 1642L1276.01 1641.98L1276 1641.96L1272.02 1645ZM1232.02 1357L1227.09 1356.18L1227.06 1356.36L1227.04 1356.55L1232.02 1357ZM1237.02 1343.5L1241.44 1345.85L1241.44 1345.85L1237.02 1343.5ZM1250.52 1333L1249.02 1328.23L1249.02 1328.23L1250.52 1333ZM1301.52 1333L1300.02 1337.77L1300.02 1337.77L1301.52 1333ZM1314.52 1343.5L1309.99 1345.61L1310.04 1345.71L1310.09 1345.81L1314.52 1343.5ZM1335.52 1583L1339.93 1580.64L1339.92 1580.62L1339.91 1580.61L1335.52 1583ZM1358.02 1605.5L1360.49 1601.15L1360.49 1601.15L1358.02 1605.5ZM1448.02 1587L1452.18 1589.77L1452.18 1589.77L1448.02 1587ZM1475.26 1346.65C1477.93 1342.39 1481.76 1339.43 1487.03 1337.77L1484.02 1328.23C1476.62 1330.57 1470.78 1334.95 1466.78 1341.35L1475.26 1346.65ZM1487.03 1337.77C1492.72 1335.97 1500.01 1335 1509.02 1335V1325C1499.37 1325 1490.99 1326.03 1484.02 1328.23L1487.03 1337.77ZM1509.02 1335C1518.47 1335 1525.6 1335.82 1530.61 1337.3L1533.43 1327.7C1527.11 1325.84 1518.91 1325 1509.02 1325V1335ZM1530.61 1337.3C1535.97 1338.87 1539.64 1340.65 1541.95 1342.45L1548.09 1334.55C1544.4 1331.68 1539.41 1329.46 1533.43 1327.7L1530.61 1337.3ZM1541.95 1342.45C1543.91 1343.97 1545.59 1346.44 1546.72 1350.37L1556.33 1347.63C1554.79 1342.22 1552.14 1337.7 1548.09 1334.55L1541.95 1342.45ZM1546.81 1350.66C1548.52 1355.5 1549.52 1363.47 1549.52 1375H1559.52C1559.52 1363.2 1558.53 1353.83 1556.24 1347.34L1546.81 1350.66ZM1549.52 1375V1526H1559.52V1375H1549.52ZM1549.52 1526C1549.52 1568.88 1536.23 1607.82 1509.54 1642.98L1517.51 1649.02C1545.48 1612.18 1559.52 1571.12 1559.52 1526H1549.52ZM1509.59 1642.91C1496.75 1659.29 1480.17 1672.68 1459.76 1683.04L1464.29 1691.96C1485.88 1680.99 1503.64 1666.71 1517.46 1649.09L1509.59 1642.91ZM1459.82 1683.01C1439.57 1692.98 1417 1698 1392.02 1698V1708C1418.38 1708 1442.48 1702.69 1464.23 1691.99L1459.82 1683.01ZM1392.02 1698C1367.42 1698 1345.03 1692.83 1324.79 1682.54L1320.26 1691.46C1342.01 1702.51 1365.96 1708 1392.02 1708V1698ZM1324.82 1682.56C1304.77 1672.21 1288.54 1658.69 1276.02 1642L1268.02 1648C1281.51 1665.98 1298.94 1680.46 1320.23 1691.44L1324.82 1682.56ZM1276 1641.96C1249.67 1607.51 1236.52 1568.57 1236.52 1525H1226.52C1226.52 1570.76 1240.38 1611.83 1268.05 1648.04L1276 1641.96ZM1236.52 1525V1374.5H1226.52V1525H1236.52ZM1236.52 1374.5C1236.52 1366.52 1236.69 1360.88 1237 1357.45L1227.04 1356.55C1226.69 1360.46 1226.52 1366.48 1226.52 1374.5H1236.52ZM1236.96 1357.82C1237.51 1354.52 1238.93 1350.55 1241.44 1345.85L1232.61 1341.15C1229.78 1346.45 1227.87 1351.48 1227.09 1356.18L1236.96 1357.82ZM1241.44 1345.85C1243.38 1342.2 1246.71 1339.45 1252.03 1337.77L1249.02 1328.23C1241.67 1330.55 1236 1334.8 1232.61 1341.15L1241.44 1345.85ZM1252.03 1337.77C1257.67 1335.99 1265.6 1335 1276.02 1335V1325C1265.12 1325 1256.04 1326.01 1249.02 1328.23L1252.03 1337.77ZM1276.02 1335C1286.45 1335 1294.38 1335.99 1300.02 1337.77L1303.03 1328.23C1296.01 1326.01 1286.93 1325 1276.02 1325V1335ZM1300.02 1337.77C1305.31 1339.44 1308.37 1342.14 1309.99 1345.61L1319.05 1341.39C1316.01 1334.86 1310.4 1330.56 1303.03 1328.23L1300.02 1337.77ZM1310.09 1345.81C1313.57 1352.48 1315.52 1362.08 1315.52 1375H1325.52C1325.52 1361.26 1323.48 1349.85 1318.96 1341.19L1310.09 1345.81ZM1315.52 1375V1525H1325.52V1375H1315.52ZM1315.52 1525C1315.52 1546.19 1320.74 1566.35 1331.13 1585.39L1339.91 1580.61C1330.3 1562.99 1325.52 1544.47 1325.52 1525H1315.52ZM1331.12 1585.36C1336.6 1595.6 1344.81 1603.76 1355.56 1609.85L1360.49 1601.15C1351.24 1595.91 1344.45 1589.07 1339.93 1580.64L1331.12 1585.36ZM1355.56 1609.85C1366.44 1616.02 1379.16 1619 1393.52 1619V1609C1380.56 1609 1369.61 1606.32 1360.49 1601.15L1355.56 1609.85ZM1393.52 1619C1419.28 1619 1439.13 1609.36 1452.18 1589.77L1443.86 1584.23C1432.92 1600.64 1416.43 1609 1393.52 1609V1619ZM1452.18 1589.77C1464.78 1570.88 1471.02 1549.06 1471.02 1524.5H1461.02C1461.02 1547.28 1455.26 1567.12 1443.86 1584.23L1452.18 1589.77ZM1471.02 1524.5V1371.5H1461.02V1524.5H1471.02ZM1471.02 1371.5C1471.02 1358.63 1472.73 1350.71 1475.26 1346.65L1466.78 1341.35C1462.65 1347.96 1461.02 1358.37 1461.02 1371.5H1471.02Z" fill="white"/>
</svg>
